<?xml version="1.0" standalone="no"?>
<!DOCTYPE svg PUBLIC "-//W3C//DTD SVG 20010904//EN"
 "http://www.w3.org/TR/2001/REC-SVG-20010904/DTD/svg10.dtd">
<svg version="1.0" xmlns="http://www.w3.org/2000/svg"
 width="1280.000000pt" height="1280.000000pt" viewBox="0 0 1280.000000 1280.000000"
 preserveAspectRatio="xMidYMid meet">
<g transform="translate(0.000000,1280.000000) scale(0.100000,-0.100000)"
fill="#000000" stroke="none">
<path d="M5144 12776 c-101 -25 -225 -80 -288 -128 -57 -44 -176 -160 -176
-173 0 -14 3182 -3195 3196 -3195 21 0 179 175 217 240 21 36 50 101 64 145
24 72 27 95 27 225 0 129 -3 153 -26 222 -59 177 4 109 -1247 1362 -868 870
-1163 1160 -1218 1196 -107 71 -298 131 -408 129 -27 0 -91 -11 -141 -23z"/>
<path d="M2495 10300 l-1720 -1720 1602 -1602 1603 -1603 738 738 c405 405
744 737 752 737 8 0 96 -81 195 -180 l180 -180 -26 -48 c-36 -65 -42 -108 -24
-170 14 -47 37 -75 197 -245 170 -179 3141 -3317 4875 -5147 428 -452 786
-823 805 -832 59 -30 110 -48 137 -48 30 0 97 22 149 50 53 27 775 755 799
805 40 83 48 123 34 173 -6 26 -21 66 -32 89 -15 32 -451 450 -1797 1725 -977
925 -2357 2232 -3065 2903 -821 778 -1304 1229 -1334 1245 -63 33 -135 32
-197 -4 -24 -14 -48 -26 -52 -26 -15 0 -364 355 -364 370 0 8 332 347 737 752
l738 738 -1600 1600 c-880 880 -1602 1600 -1605 1600 -3 0 -779 -774 -1725
-1720z"/>
<path d="M244 8048 c-85 -88 -125 -146 -169 -241 -36 -79 -75 -235 -75 -300 0
-106 62 -298 130 -400 36 -55 326 -350 1196 -1218 1253 -1251 1185 -1188 1362
-1247 69 -23 93 -26 222 -26 130 0 153 3 225 27 44 14 109 43 144 64 66 39
241 196 241 217 0 14 -3181 3196 -3196 3196 -6 0 -42 -33 -80 -72z"/>
</g>
</svg>
