<?xml version="1.0" encoding="UTF-8" standalone="no"?>
<!-- Created with Inkscape (http://www.inkscape.org/) -->

<svg
   width="350"
   height="100"
   viewBox="0 0 92.604168 26.458333"
   version="1.1"
   id="svg5"
   inkscape:version="1.2.2 (732a01da63, 2022-12-09)"
   sodipodi:docname="VoteBan Banner.svg"
   xml:space="preserve"
   xmlns:inkscape="http://www.inkscape.org/namespaces/inkscape"
   xmlns:sodipodi="http://sodipodi.sourceforge.net/DTD/sodipodi-0.dtd"
   xmlns="http://www.w3.org/2000/svg"
   xmlns:svg="http://www.w3.org/2000/svg"><sodipodi:namedview
     id="namedview7"
     pagecolor="#505050"
     bordercolor="#eeeeee"
     borderopacity="1"
     inkscape:showpageshadow="0"
     inkscape:pageopacity="0"
     inkscape:pagecheckerboard="0"
     inkscape:deskcolor="#505050"
     inkscape:document-units="px"
     showgrid="false"
     inkscape:zoom="2"
     inkscape:cx="103.5"
     inkscape:cy="41"
     inkscape:window-width="1920"
     inkscape:window-height="1057"
     inkscape:window-x="-8"
     inkscape:window-y="-8"
     inkscape:window-maximized="1"
     inkscape:current-layer="layer2" /><defs
     id="defs2" /><g
     inkscape:label="Background"
     inkscape:groupmode="layer"
     id="layer1"><rect
       style="fill:#aa0000;fill-opacity:1;stroke-width:1.32292;stroke-linecap:square;stroke-linejoin:round;stroke-opacity:0.968627;paint-order:markers stroke fill"
       id="rect236"
       width="34.395836"
       height="26.458334"
       x="0"
       y="0" /><rect
       style="fill:#333333;fill-opacity:1;stroke-width:1.32291;stroke-linecap:square;stroke-linejoin:round;stroke-opacity:0.968627;paint-order:markers stroke fill"
       id="rect236-4"
       width="58.208336"
       height="26.458334"
       x="34.395836"
       y="-1.8503718e-17" /></g><g
     inkscape:groupmode="layer"
     id="layer2"
     inkscape:label="Overlay"><text
       xml:space="preserve"
       style="font-style:normal;font-variant:normal;font-weight:normal;font-stretch:normal;font-size:19.7556px;font-family:Bahnschrift;-inkscape-font-specification:'Bahnschrift, @wght=600,wdth=75.0';font-variant-ligatures:normal;font-variant-caps:normal;font-variant-numeric:normal;font-variant-east-asian:normal;font-variation-settings:'wdth' 75, 'wght' 600;fill:#ffffff;fill-opacity:1;stroke-width:1.32291667;stroke-linecap:square;stroke-linejoin:round;stroke-opacity:0.968627;paint-order:markers stroke fill;stroke-dasharray:none"
       x="38.317688"
       y="20.299124"
       id="text4614"><tspan
         sodipodi:role="line"
         id="tspan4612"
         style="font-style:normal;font-variant:normal;font-weight:normal;font-stretch:normal;font-size:19.7556px;font-family:Bahnschrift;-inkscape-font-specification:'Bahnschrift, @wght=600,wdth=75.0';font-variant-ligatures:normal;font-variant-caps:normal;font-variant-numeric:normal;font-variant-east-asian:normal;font-variation-settings:'wdth' 75, 'wght' 600;fill:#ffffff;stroke-width:1.32291667;stroke-dasharray:none"
         x="38.317688"
         y="20.299124">VoteBan</tspan></text><g
       transform="matrix(0.00187766,0,0,-0.00187766,5.183328,25.245297)"
       fill="#000000"
       stroke="none"
       id="g4719"
       style="fill:#ffffff;stroke:#000000;stroke-width:140.911;stroke-dasharray:none;stroke-opacity:1"><path
         d="m 5144,12776 c -101,-25 -225,-80 -288,-128 -57,-44 -176,-160 -176,-173 0,-14 3182,-3195 3196,-3195 21,0 179,175 217,240 21,36 50,101 64,145 24,72 27,95 27,225 0,129 -3,153 -26,222 -59,177 4,109 -1247,1362 -868,870 -1163,1160 -1218,1196 -107,71 -298,131 -408,129 -27,0 -91,-11 -141,-23 z"
         id="path4713"
         style="fill:#ffffff;stroke:#000000;stroke-width:140.911;stroke-dasharray:none;stroke-opacity:1" /><path
         d="M 2495,10300 775,8580 2377,6978 3980,5375 l 738,738 c 405,405 744,737 752,737 8,0 96,-81 195,-180 l 180,-180 -26,-48 c -36,-65 -42,-108 -24,-170 14,-47 37,-75 197,-245 170,-179 3141,-3317 4875,-5147 428,-452 786,-823 805,-832 59,-30 110,-48 137,-48 30,0 97,22 149,50 53,27 775,755 799,805 40,83 48,123 34,173 -6,26 -21,66 -32,89 -15,32 -451,450 -1797,1725 -977,925 -2357,2232 -3065,2903 -821,778 -1304,1229 -1334,1245 -63,33 -135,32 -197,-4 -24,-14 -48,-26 -52,-26 -15,0 -364,355 -364,370 0,8 332,347 737,752 l 738,738 -1600,1600 c -880,880 -1602,1600 -1605,1600 -3,0 -779,-774 -1725,-1720 z"
         id="path4715"
         style="fill:#ffffff;stroke:#000000;stroke-width:140.911;stroke-dasharray:none;stroke-opacity:1" /><path
         d="M 244,8048 C 159,7960 119,7902 75,7807 39,7728 0,7572 0,7507 0,7401 62,7209 130,7107 166,7052 456,6757 1326,5889 2579,4638 2511,4701 2688,4642 c 69,-23 93,-26 222,-26 130,0 153,3 225,27 44,14 109,43 144,64 66,39 241,196 241,217 0,14 -3181,3196 -3196,3196 -6,0 -42,-33 -80,-72 z"
         id="path4717"
         style="fill:#ffffff;stroke:#000000;stroke-width:140.911;stroke-dasharray:none;stroke-opacity:1" /></g></g></svg>
